<?xml version="1.0" encoding="UTF-8"?>
<!DOCTYPE svg PUBLIC "-//W3C//DTD SVG 1.1//EN" "http://www.w3.org/Graphics/SVG/1.1/DTD/svg11.dtd">
<!-- Creator: CorelDRAW 2020 (64-Bit) -->
<svg xmlns="http://www.w3.org/2000/svg" xml:space="preserve" width="155.417mm" height="161.102mm" version="1.1" style="shape-rendering:geometricPrecision; text-rendering:geometricPrecision; image-rendering:optimizeQuality; fill-rule:evenodd; clip-rule:evenodd"
viewBox="0 0 15559.76 16128.99"
 xmlns:xlink="http://www.w3.org/1999/xlink"
 xmlns:xodm="http://www.corel.com/coreldraw/odm/2003">
 <defs>
  <style type="text/css">
   <![CDATA[
    .str0 {stroke:#FEFEFE;stroke-width:20.02;stroke-miterlimit:22.9256}
    .str1 {stroke:#FEFEFE;stroke-width:135.63;stroke-miterlimit:22.9256}
    .fil0 {fill:#FEFEFE}
   ]]>
  </style>
 </defs>
 <g id="Layer_x0020_1">
  <metadata id="CorelCorpID_0Corel-Layer"/>
  <path class="fil0" d="M10973.75 11369.78l299.37 208.43c132.85,190.8 1018.93,716.2 1269.06,921.44 150.32,123.34 958.41,1830.7 1159,2232.81 156.28,313.32 342.75,510.5 -49.78,709.95 -203.78,103.54 -681.22,226.66 -576.09,541.24 107.35,321.22 556.49,24.64 757.43,-78.9 499.58,-257.44 1013.95,-500.78 1506.92,-754.25 427.15,-219.62 159.22,-609.83 -183.61,-466.03 -857.41,359.62 -581.48,745.55 -1557.9,-1262.69 -121.26,-249.4 -248.04,-494.26 -379.69,-752.2 -276.7,-542.12 -81.15,-458.63 -160.83,-996.89 222.27,-314.91 -134.11,-3566.24 -169.15,-3754.94 -145.14,-781.53 -329.64,-1062.89 -655.8,-1641.6l-1654.6 -2918.01c-28.15,-130.97 1.12,-50.98 -58.6,-78.07 -33.61,-123.74 -141.39,-215.47 -324.32,-165.05 -84.62,23.33 -306.46,158.3 -334.81,203.72l-304.21 161.94c-5.21,4.11 -15.2,12.17 -22.09,19.03l-733.26 416.85c-72.2,32.09 -103.99,47.75 -166.15,80.94 -5.61,2.99 -57.98,31.82 -67.26,38.01l-83.58 68.55c-165.07,42.56 -1351.32,748.48 -1620.48,912.19 -487.05,296.22 -410.88,261.3 24.58,1024.29 539.18,944.71 1741.52,3165.52 2282.59,3720.6 286.35,293.77 534.67,552.73 862.89,833.08 316.77,270.56 603.39,528.83 940.36,775.54zm-1418.94 -7354.52c-54.55,82.65 -37.91,53.92 -111.12,64.44l-497.36 295.8c-71.55,79.9 -833.6,482.96 -983.02,573.54 -930.59,564.12 -930.15,341.25 -402.59,1266.64 114.72,201.23 139.42,376.6 425.34,391.93 712.55,38.21 2374.06,-3.93 3217.21,0.36 785.63,4.01 358.7,-516 170.04,-849.23l-864.07 -1537.92c-119.26,-192.22 -177.18,-400.59 -370.06,-437.57 -239.71,-8.83 -359.7,169.98 -584.37,232zm1810 7058.71c-43.84,-94.61 -83.53,-100.31 -165.89,-161.53l-166.6 -128.54 -977.22 -846.86c-715.75,-683.53 -744.94,-702.59 -1215.62,-1504.09 -177.04,-301.46 -663.04,-993.95 -546.35,-1207.76 101.33,-185.66 527.2,-126.73 755.08,-126.71 600.42,0.04 1200.85,0 1801.26,0 1149.95,0 1272,-125.73 1425.02,369.72 384.14,1243.81 332.35,2723.69 299.37,4035.12 -179.75,568.78 -991.49,-357.62 -1209.03,-429.35z"/>
  <path class="fil0" d="M3468.98 7121.66c296.74,-139.08 2659.09,92.69 2880.06,-80.11 137.07,-107.19 96.24,-326.41 -27.92,-397.19 -213.15,-121.5 -2049.88,44.14 -2298.07,-71.71 -316.89,-147.92 55.28,-626.98 145.17,-790.62 146.82,-267.26 799.29,-1368.54 856.01,-1535.29l310.85 -486.89c404.91,-20.15 397.22,164.14 689.21,203.91 71.39,98.53 26.71,42.73 150.81,105.5 88.78,44.9 125.39,66.85 203.39,99.22 145.47,67.48 225.49,131.04 417.69,153.17 123.65,-57.07 234.24,-164.03 193.13,-321.56 -31.32,-120 -217.98,-197.37 -335.31,-245.07 -113.03,-69.33 -275.26,-163.62 -399.46,-177.26 -121.07,-159.62 -662.64,-365.68 -843.98,-436.05 -138.91,-80.87 -336.99,-11.26 -373.64,138.39 -65.01,27.36 -26.5,-49.7 -65.96,67.65l-1636.08 2907.45c-325.9,573.72 -520.31,868.19 -664.48,1624.72 -188.99,991.77 -128.5,4305.7 -206.38,4529.29l-1279.03 2504.9c-247.01,195.15 -647.33,-234.61 -900.72,-264.03 -197.19,-22.89 -339.29,135.53 -263.55,337.47 45.2,120.51 235.63,185.03 383.05,255.65 278.36,133.36 555.65,281.17 847.66,424.42 398.46,195.5 1142.63,719.78 1235.4,286.03 111.29,-520.33 -1092.11,-319.2 -742.09,-1010.45 148.35,-292.97 283.31,-559.47 424.79,-847.09 157.14,-319.46 670.71,-1460.63 884.5,-1623.77l1461.57 -1054.19c583.7,-465.97 1206,-945.49 1714.4,-1490.85 262.36,-281.44 481.96,-513.35 706.68,-884.47 124.22,-205.16 575.23,-885.74 397.68,-1081.75 -221.64,-244.69 -408.01,57.09 -479.71,189.43 -313.72,579.1 -3139.7,3895.55 -3778.87,3505.53 -324.81,-198.18 -10.03,-4345.38 393.22,-4534.38z"/>
  <path class="fil0" d="M5153.12 614.12c-319.3,160.83 134.82,808.43 347.06,1234.28 70,140.44 154.51,298.73 375.37,201.16 316.24,-139.71 -35.88,-628.13 -135.77,-830.52 -113.39,-229.76 -275.95,-761.44 -586.66,-604.93z"/>
  <path class="fil0" d="M10157.37 641.38c-151.31,115.01 -628.39,1071.79 -611.98,1221.16 18.9,172.07 215.14,277.37 377.52,174.31 101.33,-64.31 354.77,-633.36 438.18,-800.39 55.09,-110.31 171.56,-303.51 166.93,-427.66 -7.2,-193.37 -199.13,-297.79 -370.65,-167.42z"/>
  <path class="fil0" d="M8022.64 1195.81c0.01,-364.93 118.87,-1465.36 -387.86,-1134.59 -152.78,99.73 -104.01,467.19 -103.97,675.44 0.04,207.08 -56.58,579.66 70.62,705.26 182,179.71 421.21,37.96 421.21,-246.12z"/>
  <path class="fil0" d="M3887.88 9769.58c-271.29,154.36 -79,563.92 235.37,422.71 262.54,-117.93 77.76,-600.88 -235.37,-422.71z"/>
  <path class="fil0" d="M3821.84 8257.77c-261.77,196.07 11.35,557.56 282.35,389.82 252.2,-156.11 10.96,-609.51 -282.35,-389.82z"/>
  <path class="fil0" d="M5808.89 7971.76c-351.08,117.45 -160.04,568.23 152.75,456.23 273.99,-98.11 142.38,-554.94 -152.75,-456.23z"/>
  <path class="fil0" d="M11420.48 9778.12c-112.77,72.66 -166.1,180.13 -87.64,327.66 49.9,93.83 199.07,150.16 339.83,75.94 263.1,-138.73 48.04,-597.06 -252.19,-403.6z"/>
  <path class="fil0" d="M11505.57 8231.81c-113.25,48.78 -228.4,117.46 -138.18,321.02 45.66,103.04 198.77,178.2 340.51,111.09 231.91,-109.8 110.74,-566.94 -202.33,-432.11z"/>
  <path class="fil0" d="M9546.28 8011.03c-99.59,69.49 -161.5,169.16 -76.63,319.7 61.07,108.35 234.24,152.4 354.71,70.23 237.9,-162.26 12.32,-592.61 -278.08,-389.93z"/>
  <path class="fil0 str0" d="M8870.48 2457.13c-0.08,-38.66 0.97,-79.71 -7.94,-117.17 -3.45,-14.49 -6.85,-18.32 -8.45,-28.41l-18.56 -89.57c-4.37,-13.65 -10.43,-16.91 -13.47,-23.61 -4.07,-9 -3.04,-17.7 -7.1,-27.73l-61.52 -116.86c-20.14,-26.31 -38.18,-54.23 -61.19,-78.79 -17.1,-18.25 -29.08,-41.98 -51.61,-55.2 -12.89,-7.58 -12.37,-8.39 -20.57,-16.67 -12.69,-12.8 -23.79,-21.71 -42.09,-31.49 -6.97,-3.72 -13.17,-7.01 -19.94,-12.51 -29.4,-23.92 -80.72,-54.37 -116.76,-62.91 -23.38,-5.55 -27.28,-13.1 -54.09,-18.23 -27.55,-5.28 -27.87,-9.75 -52.81,-15.05l-90.81 -14.49c-12.32,-1.83 -25.34,-1.25 -37.84,-1.3 -66.74,-0.25 -69.95,6.28 -127.83,12.79l-81.68 24.9c-15.11,7.99 -6.29,6.96 -24.7,12.07 -24.08,6.68 -7.67,-0.15 -24.43,11.16 -13.64,9.2 -12.58,4.13 -27.28,10.37 -18.93,8.03 -33.83,22.39 -51.38,33.5l-73.24 54.22c-13.56,9.45 -25.12,24.06 -36.94,35.71l-34.26 38.05c-3.47,3.68 -4.77,4.97 -8.08,8.39l-62.73 82.75c-7.31,14.66 -7.11,22.17 -28.09,24.65 -9.47,-11.72 -14.39,-23.01 -21.83,-36.54 -11.7,-21.31 -79.42,-105.74 -98.72,-121.23l-4.89 -3.56c-12.96,-10.65 -21.12,-23.64 -34.97,-32.98 -17.36,-11.71 -18.26,-14.92 -33.05,-26.29 -5.79,-4.46 -11.1,-8.31 -16.53,-13.76 -8.79,-8.8 -2.01,-6.11 -14.96,-13.3l-138.05 -70.04c-11.01,-3.32 -12.54,-3.16 -22.29,-7.44 -51.39,-22.55 -157.28,-27.47 -216.6,-22.54l-102.15 16.42c-21.41,5.68 -18.17,9.62 -46.06,12.87 -28.09,3.28 -38.79,11.55 -59.69,22.27 -0.89,0.46 -1.96,1.07 -2.81,1.55 -36.32,20.42 -50.61,20.79 -97.52,54.66 -7.47,5.4 -10.77,8.64 -16.79,13.13 -3.91,2.92 -2,1.22 -7.33,5.42 -42.43,33.36 -27.4,17.97 -73.11,62.87l-37.65 43.19c-0.58,0.75 -1.32,1.77 -1.88,2.53 -14.52,19.59 -26.61,31.19 -39.01,54.61 -3.19,6.02 -1.13,2.85 -4.43,7.63l-5.6 6.87c-17.55,22.26 -22.88,46.92 -37.02,69.23 -0.74,1.17 -5.35,9.49 -6.12,10.98 -4.12,8.06 -6.24,12.22 -9.96,19.84 -12.16,24.89 -39.11,109.74 -42.5,136.18 -2.85,22.21 -2.93,31.3 -7.86,51.69 -15.18,62.93 -14.64,153.56 -1.64,218.78 12.23,61.38 9.2,80.62 38.01,140.56 7.61,15.82 22.51,76.85 49.94,128.6 8.69,16.39 10.75,27.72 19.05,40.91l45.48 72.55c14.31,25.15 34.75,46.92 53.05,70.22l56.57 70.24c23.51,32.55 54.06,55.96 82.8,83.04l95.92 82.03c13.84,9.74 20.72,17.03 31.69,27.84 62.11,61.31 124.91,100.97 192.31,163.44 31.62,29.3 65.22,53.09 94.87,83.35l144.35 122.59c7.49,6.59 7.21,6.45 16.09,13.41 11.11,8.73 21.11,19.23 31.39,28.11 10.27,8.88 22.99,16.71 32.8,26.51l190.99 164.97c3.15,2.61 2.48,2.21 7.09,5.6 36.25,26.68 63.6,12.07 96.36,-8.98 50.23,-32.28 28.27,-25.26 80.01,-72.09l99.81 -86.74c0.63,-0.59 1.46,-1.53 2.09,-2.13l130.04 -111.3c15.76,-17.19 35.52,-28.76 52.68,-45.04 13.58,-12.87 17.16,-16.13 33.07,-26.78l9.13 -7.27c0.63,-0.58 1.4,-1.57 2.03,-2.17l9.45 -8.02c0.72,-0.55 1.84,-1.14 2.55,-1.67l10.97 -9.72c0.64,-0.61 1.5,-1.56 2.16,-2.17l89.75 -79.7c10.7,-10.3 22.23,-14.8 31.74,-27.02 17.23,-22.14 41.59,-38.23 62.06,-57.19l128.88 -108.62c39.62,-34.65 91.13,-73.17 124.41,-112.79l29.32 -30.07c51.24,-50.97 130.71,-164.08 157.63,-229.44l14.18 -22.13c18.29,-20.59 23.28,-50.01 35.57,-74.94 9.88,-20.03 4.34,-29.64 11.55,-49.66 5.45,-15.09 3.9,-4.63 9.21,-20.23l31.74 -124.47c0.35,-1.02 0.8,-2.1 1.14,-3.15 10.22,-32.14 6.52,-69.07 6.46,-102.1z"/>
  <path class="fil0 str1" d="M7646.98 3788.14c11.13,-10.12 23.45,-26.48 37.02,-33.56 25.53,-13.29 47.87,-35.49 69.06,-54.94l115.95 -103.88c0.68,-0.53 1.75,-1.19 2.46,-1.71 37.83,-27.82 71.55,-60.12 108.42,-91.13l286.15 -247.71c26.98,-20.04 50.24,-48.74 79.44,-65.72 13.21,-7.69 27.02,-23.45 37.7,-33.6 35.71,-33.95 103.38,-89.46 130.3,-119.79 73.29,-82.56 82.95,-93.78 141.27,-185.04 23.57,-36.85 42.1,-77.68 59.7,-118.31 9.41,-21.71 25.97,-58.03 29.74,-81.38 1.74,-10.76 1.21,-20.72 3.75,-30.83 4.42,-17.53 6.72,-11.28 12.07,-24.34 16.04,-39.09 24.13,-151.25 16.53,-196.54 -18.31,-109.04 -38.07,-203.18 -100.95,-293.83 -20.31,-29.28 -38.99,-54.55 -64.49,-79.64 -7.69,-7.56 -14.1,-19.79 -26.71,-28.86l-23.55 -18.78c-4.16,-2.92 -4.56,-2.47 -8.44,-4.8l-18.8 -14.36c-0.79,-0.56 -1.91,-1.19 -2.72,-1.73l-28.42 -22.23c-1.16,-0.85 -9.2,-7.02 -9.6,-7.27 -13.64,-8.67 -15.33,-4.41 -26.42,-11.86l-33.48 -17.27c-18.88,-13.43 -15.83,-7.6 -37.09,-18.12l-52.64 -18.94c-74.43,-25.7 -160.43,-15.6 -235.11,-11.62 -45.38,2.41 -91.14,30.11 -109.17,35.18 -29.8,8.38 -132.22,76.02 -152.79,97.37 -8.44,8.77 -10.69,9.92 -19.17,19.05 -15.16,16.32 -38.47,33.3 -51.32,53.73 -4.21,6.72 -1.57,3.66 -6.65,10.92l-93.69 143.48c-14.93,26.52 -16.47,20.88 -34.32,41.85 -24.64,0.51 -33.12,-5.11 -46.23,-18.66 -2.33,-2.41 -3.55,-3.71 -6.06,-7.14l-40.24 -69.92c-18.83,-41.94 -67.56,-109.65 -101.86,-143.69l-31.77 -27.08c-0.79,-0.63 -1.77,-1.41 -2.52,-2.07l-121.86 -89.76 -64.08 -27.85c-16.67,-4.9 -31.7,-11.04 -50.22,-14.22 -105.48,-18.09 -94.87,-16.32 -207.29,-5.25 -40.61,4 -88.59,24.27 -125.95,41.38l-81.44 45.97c-40.54,25.34 -79.17,70.12 -111.19,104.22 -14.23,15.15 -15.2,14.34 -26.6,31.67l-59.63 110.14c-22.67,52.36 -20.29,69.54 -26.89,88.41 -3.78,10.82 -4.58,5.65 -8.99,20.11 -17.37,56.89 -34.32,181.75 -16.38,231.13 11.48,31.6 8.75,62.38 20.4,93.67 6.56,17.62 5.32,23.11 10.82,44.85 10.71,42.29 38.01,80.97 50.92,122.56l11.76 26.74c19.78,35.9 22.69,47.68 46.92,84.51l98.28 126.1c0.62,0.65 1.46,1.6 2.07,2.26 33.69,36.25 73.53,68.3 109.88,101.68 28.09,25.79 43.37,30.92 70.27,61.78 6.38,7.32 21.99,18.9 31.74,26.6l27.39 24.08c0.66,0.63 1.54,1.54 2.18,2.17 11.55,11.15 2.83,4.21 15.89,12.4 10.11,6.34 10.38,7.14 17.81,12.71 31.89,23.94 66.81,47.96 94.15,75.61 7.3,7.38 3.98,6.2 14.51,15.2l241.01 204.21c18.48,14.92 31.73,32.04 51.84,45.63l45.26 39.51c32.34,24.75 29.63,28.38 66.71,56.24l12.29 8.87c24.7,20.31 69.61,67.67 93.03,81.42z"/>
  <path class="fil0" d="M7035.97 2066.26c38.52,0 118.21,19.25 118.22,-41.21 0.01,-97.22 -240.17,-47.45 -302.76,-10.88 -10.81,6.31 -13.7,6.92 -25.22,13.14l-40.82 26.71c-0.69,0.58 -1.64,1.43 -2.34,2l-64.24 67.13c-0.63,0.66 -1.48,1.58 -2.14,2.22l-17.15 16.27c-25.63,32.07 -12.39,17.29 -24.57,38.54 -28.4,49.61 0.41,3.49 -28.74,69.4 -2.81,6.37 -3.2,8.03 -6.69,14.23 -3.57,6.37 -5.62,8.03 -7.9,12.7 -6.41,13.08 -5.83,49.68 -11.28,69.89 -9.23,34.26 -16.04,108.38 -6.69,152.22l16.21 63.47c5.4,27.46 24.75,98.21 58.75,102.94 29.56,4.11 43.13,-5.23 56.34,-24.18 23.38,-33.52 -17.8,-55.08 -27.22,-118.77 -9.31,-62.93 -23.32,-67.89 -7.49,-137.38 5.28,-23.14 5.99,-47.46 12.87,-67.37 14.34,-41.46 26.94,-73.78 51.72,-108.8 7.04,-9.94 9.01,-11.32 19.31,-19.28 26.84,-20.74 -9.57,-2.94 40.36,-40 6.29,-4.67 5.27,-5.06 10.72,-9.79l12.08 -9.53c41.6,-37.59 123.41,-63.68 178.68,-63.68z"/>
 </g>
</svg>
