<?xml version="1.0" encoding="UTF-8"?>
<!DOCTYPE svg PUBLIC "-//W3C//DTD SVG 1.1//EN" "http://www.w3.org/Graphics/SVG/1.1/DTD/svg11.dtd">
<!-- Creator: CorelDRAW 2020 (64-Bit) -->
<svg xmlns="http://www.w3.org/2000/svg" xml:space="preserve" width="88.9mm" height="5.2277mm" version="1.1" style="shape-rendering:geometricPrecision; text-rendering:geometricPrecision; image-rendering:optimizeQuality; fill-rule:evenodd; clip-rule:evenodd"
viewBox="0 0 5055.07 297.26"
 xmlns:xlink="http://www.w3.org/1999/xlink"
 xmlns:xodm="http://www.corel.com/coreldraw/odm/2003">
 <defs>
  <style type="text/css">
   <![CDATA[
    .str0 {stroke:#D2AE6D;stroke-width:24.07;stroke-miterlimit:22.9256}
    .str1 {stroke:#D2AE6D;stroke-width:11.37;stroke-miterlimit:22.9256}
    .fil0 {fill:none}
    .fil1 {fill:#E8D4B4}
   ]]>
  </style>
 </defs>
 <g id="Layer_x0020_1">
  <metadata id="CorelCorpID_0Corel-Layer"/>
  <line class="fil0 str0" x1="-0" y1="186.11" x2="2316.9" y2= "186.11" />
  <path class="fil1 str1" d="M2452.41 5.69c36.26,0 67.05,27.73 78.07,66.26 11.03,-38.53 41.82,-66.26 78.07,-66.26 39.55,0 72.6,33 80.57,77.01 8.6,47.45 -25.25,89.22 -55.28,122.66 -30.01,33.42 -67.61,65.38 -101.95,85.41 -35.79,-18.53 -70.99,-47.74 -99.04,-75.18 -46.46,-45.44 -88.21,-88.95 -58.06,-158.87 12.56,-29.14 38.29,-51.04 77.61,-51.04z"/>
  <line class="fil0 str0" x1="2738.16" y1="186.11" x2="5055.07" y2= "186.11" />
 </g>
</svg>
