<?xml version="1.0" encoding="UTF-8"?>
<!DOCTYPE svg PUBLIC "-//W3C//DTD SVG 1.1//EN" "http://www.w3.org/Graphics/SVG/1.1/DTD/svg11.dtd">
<!-- Creator: CorelDRAW 2020 (64-Bit) -->
<svg xmlns="http://www.w3.org/2000/svg" xml:space="preserve" width="175.559mm" height="186.088mm" version="1.1" style="shape-rendering:geometricPrecision; text-rendering:geometricPrecision; image-rendering:optimizeQuality; fill-rule:evenodd; clip-rule:evenodd"
viewBox="0 0 16763.66 17769.05"
 xmlns:xlink="http://www.w3.org/1999/xlink"
 xmlns:xodm="http://www.corel.com/coreldraw/odm/2003">
 <defs>
  <style type="text/css">
   <![CDATA[
    .fil1 {fill:#D2AE6D}
    .fil0 {fill:#DEBF92}
    .fil3 {fill:#C99E52}
    .fil4 {fill:#D2AE6D}
    .fil2 {fill:white}
   ]]>
  </style>
 </defs>
 <g id="Layer_x0020_1">
  <metadata id="CorelCorpID_0Corel-Layer"/>
  <path class="fil0" d="M6285.21 4586.43c-32.32,97.87 -509.41,935.27 -583.69,1031.81 -107.32,139.48 -465.77,126.04 -658.58,153.07 -236.45,33.14 -473.3,63.15 -710.27,96.49 -560.15,78.82 -392.29,165.12 -1031.08,-454.46l-819.57 -790.06c181.42,-698.79 336.66,-1515.66 451.39,-2246.38 -100.56,-93.62 -116.15,-328.42 -300.34,-469.08 -392.18,-299.51 -1196.87,-299.08 -1347.34,537.67 -77.34,430.11 -154.74,868.11 -231.62,1285.45 -68.28,370.65 -217.11,961.05 -192.29,1327.11 44.78,552.11 753.59,1120.64 1017.01,1510.46l659.54 755.97c411.88,512.35 572.49,515.79 356.82,773.88 -57.71,174.66 -186.39,372.15 -274.58,536.37 -353,657.27 -677.69,1286.53 -713.24,2047.51 -18.1,387.39 66.05,854.55 117.62,1230.27 49.16,358.17 316.93,2195.44 277.7,2395.28 5.42,8.68 9.93,20.43 12.74,27.94l62.26 322.76c10.63,314.21 89.89,728.82 130.01,1048.95 58.55,467.31 178.93,480.7 415.41,731.01 242.29,59.55 822.74,331.66 1215.49,-288.85 248.41,-392.44 124.11,-991.69 72.65,-1516.8l-257.54 -3241.82 332.81 -343.32c163.43,192.17 994.7,1330.27 1058.43,1488.47 205.64,87.21 108.24,391 61.26,640.37 -98.29,648.67 -213.2,1307.26 -329.47,1953.29 -64.71,359.59 -138.11,637.86 13.61,960.03 120.42,255.69 352.04,429.83 723.13,459.63 457.38,69.46 786.27,-330.11 874.31,-680.34 100.76,-400.79 155.9,-861.49 274.38,-1244.46 19.22,-127.4 27.3,-338.53 114.6,-417.79 -21.21,-222.77 213.7,-1082.61 264.7,-1388.32 100.83,-604.46 -233.44,-832.43 -361.05,-1216.85l-501.66 -939.57c-101.71,-162.4 -222.56,-395.11 -310.13,-570.74 -172.03,-345.03 -171.52,-208.74 -66.25,-635.55 155.34,-629.72 280.97,-1263.24 448.46,-1887.23 2.13,-14.17 8.78,-17.23 14.54,-24.94 -27.77,-243.89 117.44,-398.09 220.16,-570.15 314.94,-527.56 1664.6,-2490.83 1649.79,-2992.86 -9,-304.9 -662.25,-1807.91 -822.8,-2204.86 -149.22,-368.92 -300.83,-717.6 -788.31,-726.33 -437.37,13.15 -709.02,257.92 -784.98,626.43 -85.88,416.62 497.47,1482.62 682.47,2040.35 55.55,167.48 -384.98,822.7 -436.46,870.22z"/>
  <path class="fil1" d="M14895.24 2027.04c0.33,99.13 -304.86,911.02 -363.63,1010.02 -70.97,237.15 -137.7,444.6 -271.83,630.26l-1065.84 1561.2c-98.48,150.31 -65.32,120.46 -277.5,163.84l-1067.76 244.1c-477.73,112.75 -954.16,221.85 -1386.25,361.57 -98.58,98.71 -213.8,108.11 -428.18,351.52l-724.07 858.32c-117.67,139.46 -248.48,320 -358.38,416.73 -205.35,440.06 -352.15,27.36 -822.62,1599.34 -97.82,326.86 -181.99,614.44 -279.32,934.24 -170.25,559.43 -128.65,501.85 55.19,963.13 80.76,11.41 108.33,87.3 214.42,153.64 87.02,54.43 156.24,82.61 271.44,99.74 272.22,40.49 423.83,-56.11 595.81,-148.86 26.17,-26.53 37.73,-41.79 64.65,-66.59 58.83,-54.18 22.26,-25.21 80.22,-65.03l187.73 -510.29c50.33,-144.29 111.32,-357.45 169.26,-473.17 49.65,-222.03 140.05,-448.52 220.08,-682.49 100.8,-294.71 164.25,-314.4 327.31,-516.4l796.83 -938.67c138.91,307.8 -12.81,1111.22 -72.29,1455.72 -104.47,605.08 -213.46,713.44 -435.95,1147.47 -146.19,285.17 -968.86,1950.97 -1091.74,2047.7 -5.61,110.59 -231.47,869.7 -289.62,1057.68l-126.21 421.17c-3.4,5.9 -9.96,16.33 -15.98,23.73 16.03,160.03 -159.22,686.96 -210.35,883.48 -79.34,304.94 -214.84,638.51 -112.29,958.31 87.84,273.9 305.08,486.44 586.59,560.16 420.77,110.16 604.82,-20.23 883.42,-164.36 42.77,-92.95 46.69,-93.87 160.09,-149.8l173.28 -523.96c49.25,-178.78 116.17,-386.07 146.82,-560.4 19.7,-72.54 37.45,-143.38 54.6,-212.49 28.43,-114.54 23.85,-146.6 93.68,-219.31 -14.9,-186.52 128.76,-591.08 180.59,-789.07 56.69,-216.61 145.63,-630.3 275.9,-699.4 47.94,-136.82 579.39,-1109.08 641.59,-1145.31 134.68,-345.38 451.35,-791.43 535.35,-1014.05 61.94,48.98 43.3,29.47 102.79,108.7l273.63 399.45c164.68,231.86 697.1,965.96 726.72,1194.41 14.99,115.64 29.56,246.38 4.51,342.07 25.29,40.49 11.64,-3.34 33.97,85.25 10.47,41.57 14.89,84.7 19.7,128.18 7.79,70.42 14.05,135.91 21.32,204.64 2.09,185.5 59.72,387.38 26.06,558.81 20.57,35.41 10.06,-7.73 32.16,84.86 12.29,51.5 13.36,77.6 18.94,130.08 8.52,80.06 16.23,158.21 23.89,236.82 3.76,333 70.88,886.47 118.38,1229.41 67.75,489.13 246.13,564.84 555.51,761.26 483.64,82.6 857.75,-47.03 1047.06,-367.65 188.21,-318.78 91.4,-824.49 48.36,-1237.99 -92.91,-892.6 -159.41,-1786.65 -253.44,-2675.66 -76.19,-602.4 -705.52,-1483.79 -902.89,-2122.03 -46.02,-55.45 -172.76,-303.98 -202.48,-378.7 -48.68,-122.34 6.87,-280.58 64.32,-396.41 18.85,-109.2 -3.67,-40.43 30.81,-134.75 21.55,-58.95 18.24,-41.7 43.99,-74.34 -18.89,-140.2 137.11,-760.9 169.44,-995.38 49.53,-359.18 63.95,-709.33 81.79,-1088.41 10.7,-227.11 83.53,-272.31 175.51,-435.13 303.79,-537.72 621.9,-1063.67 923.91,-1601.4 42.87,-76.32 92.61,-165.21 135.1,-237.39l141.96 -225.02c62.96,-155.63 151.08,-262.56 226.99,-451.15l552.31 -1400.35c113.93,-293.42 331.55,-672.74 228.82,-1056.86 -76.67,-286.67 -377.85,-573.2 -726.4,-586.37 -339.57,4.88 -571.74,104.98 -722.07,287.17 -116.71,141.45 -170.4,348.73 -241.45,531.64l-94.27 158.8z"/>
  <path class="fil1" d="M10404.86 3012.67c-517.8,743.01 -169.28,1792.24 663.74,2079.04 1539.91,517.52 2533.47,-1497.58 1264.28,-2409.66 -142.93,-102.72 -386.28,-215.51 -595.52,-240.71 -515.09,-62.04 -1032,140.12 -1332.5,571.33z"/>
  <path class="fil0" d="M3463.78 4512.88c521.63,944.99 1915.58,855.08 2406.33,-103.41 195.74,-552.99 163.58,-940.63 -174.87,-1451.13 -441.04,-665.24 -1436.39,-749.35 -2018.23,-137.5 -457.16,480.69 -539.26,1101.41 -213.24,1692.04z"/>
  <path class="fil2" d="M6824.19 1049.42c487.48,8.74 639.1,357.41 788.31,726.33 160.55,396.95 813.8,1899.96 822.8,2204.86 15.27,517.6 -416.1,800.93 -449.05,1083.83 43.75,18.7 327.39,-6.41 454.84,-6.41l0 -505.29 505.29 0 0 -505.29 505.29 0 0 -505.28 -505.29 0 0 -505.29 -505.29 0 0 -505.29c-605.72,0 -505.28,100.44 -505.28,-505.28l505.28 0 0 -505.29 -505.28 0 0 -505.29 -505.29 0 0 -505.28 -505.29 0 0 505.28c-178.09,0 -50.22,0.24 -101.05,33.69z"/>
 </g>
 <g id="Layer_x0020_1_0">
  <metadata id="CorelCorpID_1Corel-Layer"/>
  <path class="fil3" d="M7962.01 7871.72c7.18,-6.53 15.13,-17.08 23.88,-21.66 16.47,-8.57 30.88,-22.9 44.56,-35.44l74.81 -67.02c0.44,-0.34 1.13,-0.77 1.59,-1.11 24.42,-17.95 46.17,-38.79 69.95,-58.79l184.62 -159.83c17.41,-12.93 32.42,-31.44 51.26,-42.41 8.52,-4.96 17.44,-15.13 24.33,-21.68 23.04,-21.9 66.7,-57.72 84.07,-77.29 47.29,-53.26 53.52,-60.51 91.15,-119.39 15.2,-23.78 27.17,-50.12 38.52,-76.33 6.07,-14 16.76,-37.44 19.19,-52.51 1.12,-6.94 0.78,-13.37 2.42,-19.89 2.86,-11.31 4.34,-7.28 7.79,-15.7 10.35,-25.22 15.57,-97.59 10.67,-126.82 -11.81,-70.35 -24.56,-131.08 -65.13,-189.58 -13.1,-18.89 -25.15,-35.2 -41.61,-51.38 -4.96,-4.88 -9.09,-12.78 -17.24,-18.62l-15.19 -12.13c-2.68,-1.88 -2.94,-1.59 -5.44,-3.09l-12.13 -9.26c-0.52,-0.36 -1.24,-0.76 -1.76,-1.12l-18.34 -14.34c-0.74,-0.54 -5.94,-4.53 -6.2,-4.69 -8.79,-5.59 -9.88,-2.84 -17.04,-7.65l-21.6 -11.14c-12.18,-8.66 -10.22,-4.91 -23.94,-11.7l-33.96 -12.22c-48.02,-16.58 -103.51,-10.06 -151.69,-7.5 -29.29,1.56 -58.8,19.43 -70.44,22.7 -19.22,5.4 -85.31,49.05 -98.57,62.83 -5.45,5.65 -6.9,6.4 -12.38,12.29 -9.78,10.53 -24.83,21.48 -33.11,34.67 -2.71,4.34 -1.01,2.36 -4.29,7.05l-60.44 92.57c-9.63,17.11 -10.63,13.47 -22.14,26.99 -15.9,0.33 -21.37,-3.29 -29.83,-12.04 -1.51,-1.56 -2.29,-2.4 -3.91,-4.6l-25.95 -45.12c-12.16,-27.05 -43.59,-70.75 -65.72,-92.71l-20.49 -17.46c-0.52,-0.41 -1.15,-0.92 -1.63,-1.35l-78.62 -57.91 -41.35 -17.97c-10.76,-3.16 -20.45,-7.12 -32.41,-9.17 -68.05,-11.68 -61.21,-10.53 -133.74,-3.39 -26.2,2.59 -57.16,15.66 -81.26,26.7l-52.56 29.66c-26.15,16.36 -51.08,45.25 -71.74,67.25 -9.18,9.77 -9.81,9.24 -17.16,20.42l-38.47 71.06c-14.63,33.78 -13.09,44.87 -17.35,57.04 -2.44,6.99 -2.95,3.65 -5.81,12.98 -11.2,36.71 -22.14,117.27 -10.56,149.13 7.4,20.39 5.64,40.25 13.16,60.43 4.23,11.37 3.43,14.91 6.98,28.94 6.91,27.28 24.53,52.24 32.86,79.07l7.59 17.25c12.77,23.17 14.64,30.77 30.28,54.52l63.41 81.36c0.4,0.42 0.94,1.03 1.34,1.46 21.73,23.38 47.44,44.07 70.89,65.6 18.12,16.64 27.99,19.95 45.34,39.87 4.12,4.72 14.19,12.19 20.48,17.16l17.67 15.54c0.42,0.41 0.99,0.99 1.4,1.4 7.46,7.19 1.83,2.72 10.26,8 6.52,4.09 6.69,4.6 11.49,8.2 20.58,15.45 43.1,30.94 60.75,48.78 4.71,4.76 2.57,4 9.36,9.81l155.5 131.75c11.93,9.63 20.47,20.67 33.45,29.45l29.21 25.49c20.86,15.97 19.12,18.31 43.04,36.29l7.93 5.72c15.94,13.11 44.91,43.67 60.02,52.54z"/>
  <path class="fil4" d="M15162.01 17106.75c-329.04,215.41 -609.31,-87.93 -651.56,-108.06 112.81,237.88 141.85,474.77 -68.56,660.98 27.56,-6.99 59.13,-29.94 88.52,-42.06 84.2,-34.7 177.5,-42 257.59,-22.13 203.47,50.48 256.31,141.43 313.99,173.58 -4.06,-22.48 -28.79,-62.69 -38.28,-86.95 -64.87,-166.03 -75.36,-343.64 34.17,-496.17 19.15,-26.66 51.72,-53.34 64.14,-79.18z"/>
  <path class="fil4" d="M16517.55 16765.24c-67.94,11.34 -132.91,84.11 -303.9,-5.91 -33.65,-17.72 -69.6,-53.63 -95.95,-66.74 45.92,109.52 74.72,203.62 28.2,310.89 -20.3,46.81 -44.82,59.89 -66.4,96.65 152.66,-88.76 266.11,-35.37 397.28,63.66 -0.08,-1.78 0.5,-2.95 -0.79,-5.26l-5.45 -20.07c-52.16,-140.35 -71.75,-248.32 47.01,-373.22z"/>
  <path class="fil4" d="M16763.66 15199.6c-44.76,14.39 -54.35,27.74 -105.68,35.64 -37.26,5.74 -70.65,1.29 -100.3,-5.47 -107.69,-24.57 -137.13,-74.25 -191.05,-104.84 52.12,107.97 72.84,204.63 32.89,307.83 -17.58,45.42 -39.07,56.61 -65.5,96.57 61.92,-9.77 177.83,-118.22 399.49,74.29 -6.96,-30.43 -29.77,-72.37 -38.85,-105.68 -9.15,-33.5 -14.97,-72.87 -13.13,-102.79 8.16,-131.87 60.62,-141.84 82.14,-195.55z"/>
  <path class="fil4" d="M2272.84 624.49c390.04,-50.43 510.04,344.76 539.28,381.29 2.18,-263.26 79.31,-489.13 349.85,-564.98 -27.84,-5.73 -66.27,1.17 -98.01,-0.74 -90.89,-5.47 -178.05,-39.58 -241.46,-92.37 -161.12,-134.14 -169.02,-239 -206.92,-293.09 -6.15,22 -1.41,68.96 -3.47,94.94 -13.99,177.7 -81.97,342.11 -247.03,431.65 -28.85,15.65 -69.8,25.46 -92.24,43.29z"/>
  <path class="fil4" d="M904.01 340.92c66.1,19.41 156.28,-17.76 270.93,137.81 22.56,30.61 39.27,78.6 57.26,101.88 6.42,-118.59 21.51,-215.82 110.14,-292.08 38.68,-33.27 66.44,-34.37 101.89,-58.05 -176.09,13.33 -254.91,-84.16 -329.8,-230.48 -0.7,1.63 -1.74,2.43 -1.58,5.08l-3.84 20.44c-14.25,149.05 -43.68,254.76 -205.01,315.39z"/>
  <path class="fil4" d="M-0 1642.69c46.56,6.55 61.01,-1.28 110.64,13.98 36.03,11.08 64.14,29.64 87.88,48.65 86.21,69.06 91.05,126.6 126.24,177.63 0.16,-119.88 23.65,-215.92 104.6,-291.37 35.63,-33.22 59.84,-33.93 101.04,-58.36 -59.99,-18.19 -211.58,28.88 -327.14,-241.01 -7,30.42 -4.76,78.11 -11.11,112.05 -6.37,34.13 -18.29,72.1 -33,98.23 -64.82,115.12 -116.38,101.23 -159.16,140.18l0 0.01z"/>
 </g>
</svg>
