<?xml version="1.0" encoding="UTF-8"?>
<!DOCTYPE svg PUBLIC "-//W3C//DTD SVG 1.1//EN" "http://www.w3.org/Graphics/SVG/1.1/DTD/svg11.dtd">
<!-- Creator: CorelDRAW 2020 (64-Bit) -->
<svg xmlns="http://www.w3.org/2000/svg" xml:space="preserve" width="44.848mm" height="36.4735mm" version="1.1" style="shape-rendering:geometricPrecision; text-rendering:geometricPrecision; image-rendering:optimizeQuality; fill-rule:evenodd; clip-rule:evenodd"
viewBox="0 0 2514.1 2044.64"
 xmlns:xlink="http://www.w3.org/1999/xlink"
 xmlns:xodm="http://www.corel.com/coreldraw/odm/2003">
 <defs>
  <style type="text/css">
   <![CDATA[
    .fil0 {fill:#84716B;fill-rule:nonzero}
   ]]>
  </style>
 </defs>
 <g id="Layer_x0020_1">
  <metadata id="CorelCorpID_0Corel-Layer"/>
  <path class="fil0" d="M908.27 718.63c-6.6,-21.45 -11.55,-13.2 -9.9,-0.83 -16.5,91.57 -161.69,77.55 -242.54,82.5 61.05,-108.06 117.97,-296.16 146.84,-423.19 28.05,-122.92 -36.3,-72.6 -40.42,-52.8 -25.57,85.79 -109.72,292.03 -212.01,364.62 -64.34,46.2 -140.24,39.6 -118.79,-59.4 16.5,-75.07 73.42,-188.09 128.69,-282.13 74.24,-125.39 109.72,-276.36 -11.55,-330.8 -144.37,-65.17 -419.07,69.3 -516.42,269.76 -100.64,206.24 55.27,340.7 186.44,286.26 184.79,-75.89 241.71,-326.67 67.65,-279.65 -14.85,3.3 -26.4,17.32 1.65,11.55 143.54,-25.57 48.67,207.89 -66,249.13 -107.24,38.77 -231.81,-42.07 -146.84,-245.84 76.72,-182.31 344.01,-349.78 476.82,-264.81 63.53,40.42 15.67,195.51 -57.75,315.13 -45.37,74.24 -108.89,183.97 -120.44,266.46 -16.5,125.4 103.94,138.59 188.09,81.67 76.72,-51.97 136.12,-156.74 167.47,-224.38 -29.7,110.54 -70.12,213.66 -113.02,319.26 -119.62,0 -244.18,6.6 -356.38,52.8 -206.24,84.97 -60.22,226.03 155.09,143.54 84.14,-32.17 173.24,-92.39 228.51,-175.71 83.32,-0.82 162.51,-1.65 205.41,-18.97 50.32,-21.45 65.99,-62.7 59.39,-84.14zm-303.58 103.11c-49.5,79.2 -128.69,131.17 -202.11,158.39 -131.99,48.67 -291.21,0.82 -129.52,-91.57 98.17,-56.92 220.26,-66.82 331.63,-66.82zm518.06 -278.83c8.25,-16.5 -4.13,-21.45 -11.55,-6.6 -17.33,35.47 -71.77,140.25 -106.42,138.59 -10.72,0 -14.85,-15.67 -8.25,-49.49 10.72,-50.32 59.39,-136.94 76.72,-154.27 -11.55,2.47 -23.92,-2.48 -34.64,-3.3 -26.4,-1.65 -37.95,18.15 -56.1,52.8 -21.45,40.42 -44.55,80.85 -73.42,115.5 -38.78,46.2 -84.14,52.8 -75.9,-4.95 4.95,-31.35 27.22,-71.77 33.83,-83.32 29.69,-48.68 72.6,-97.35 109.72,-117.97 30.52,-16.5 61.05,-9.9 70.12,20.62 14.03,2.47 20.62,-11.55 9.08,-23.93 -47.02,-51.15 -141.89,-20.62 -191.39,37.95 -124.57,149.31 -61.87,293.68 33,202.94 23.92,-23.1 46.19,-56.1 59.39,-77.55 -24.75,86.62 14.03,108.07 41.25,106.42 49.49,-4.12 99.82,-103.12 124.57,-153.44zm276.36 -0.82c8.25,-16.5 -4.95,-22.28 -11.55,-7.43 -17.32,34.65 -70.12,142.72 -113.01,142.72 -10.73,0 -19.8,-7.43 -13.2,-41.25 10.72,-57.75 98.99,-212.84 98.99,-212.84 -28.05,-9.9 -113.02,42.07 -152.61,77.55 -25.57,22.27 -51.97,53.62 -68.48,74.24 29.7,-59.4 75.07,-141.89 99.82,-155.09 -11.55,2.48 -23.93,-2.47 -34.65,-3.3 -26.4,-1.65 -37.12,12.38 -58.57,51.97 -40.42,75.07 -74.25,153.44 -113.84,231.81 8.25,-5.77 15.67,-4.95 28.05,-5.77 17.33,0.82 24.75,0 31.35,-11.55 46.2,-91.57 86.62,-137.77 114.67,-163.34 63.53,-59.39 78.37,-37.12 58.58,-4.95 -23.1,37.12 -38.78,65.17 -45.37,86.62 -24.75,76.72 14.85,96.52 43.72,96.52 63.53,0 111.37,-104.77 136.12,-155.09l0 -0.82zm115.49 -192.21c3.3,-18.98 -9.9,-33.83 -28.88,-33.83 -18.15,0 -36.3,14.85 -39.6,33.83 -2.47,18.97 9.9,33.82 28.88,33.82 18.98,0 36.3,-14.85 39.6,-33.82zm-116.32 274.7c1.65,-5.77 9.9,-23.92 9.9,-23.92l66 -154.27c9.08,-19.8 9.08,-28.87 -17.33,-28.87l-45.37 0.82c3.3,4.13 14.85,18.97 8.25,34.64l-52.8 134.47c-17.32,42.9 -17.32,107.24 44.55,107.24 61.04,0 108.07,-104.77 129.52,-150.96 7.42,-16.5 -4.13,-22.27 -10.72,-7.43 -23.1,46.2 -50.32,97.35 -77.55,124.57 -9.08,8.25 -24.75,17.33 -37.13,15.68 -23.1,-1.65 -24.74,-24.75 -17.32,-51.98z"/>
  <path class="fil0" d="M936.82 1095.01l0 -17.13c27.27,2.07 50.1,3.15 68.62,3.15 19.59,0 40.46,-1.08 62.51,-3.15l0 16.54c-22.05,3.44 -37.5,8.86 -46.37,16.24 -8.86,7.29 -22.84,29.04 -42.04,65.17 -13.88,26.09 -30.42,51.09 -49.71,74.92 18.41,17.92 33.57,30.22 45.48,36.92 11.91,6.59 23.04,9.94 33.38,9.94 9.55,0 19.69,-1.97 30.22,-5.9 10.53,-3.84 24.02,-11.13 40.26,-21.86l13.59 16.44c-32.19,27.17 -54.44,44.2 -66.45,50.9 -12.11,6.69 -23.03,10.04 -32.88,10.04 -29.54,0 -62.91,-18.8 -100.12,-56.31 -21.07,19.3 -41.94,33.47 -62.71,42.63 -20.77,9.15 -43.22,13.68 -67.43,13.68 -30.92,0 -56.11,-9.74 -75.71,-29.14 -19.59,-19.49 -29.44,-43.22 -29.44,-71.27 0,-24.32 8.27,-46.86 24.81,-67.63 16.54,-20.77 48.64,-43.71 96.18,-68.72 -9.75,-21.76 -16.54,-39.67 -20.28,-53.85 -3.74,-14.08 -5.61,-27.76 -5.61,-40.75 0,-23.33 10.63,-44.5 31.9,-63.6 21.17,-19 47.45,-28.55 78.56,-28.55 22.64,0 40.46,6.1 53.36,18.21 12.9,12.11 19.3,27.86 19.3,47.35 0,44.99 -33.27,83.58 -99.72,115.77 10.93,22.25 21.26,41.45 30.91,57.4 9.75,15.94 24.71,38.49 45.09,67.53 17.52,-22.05 30.52,-43.42 38.89,-63.9 8.37,-20.47 12.5,-36.33 12.5,-47.74 0,-4.23 -1.67,-8.17 -5.12,-11.91 -3.54,-3.74 -10.83,-7.58 -21.95,-11.42zm-110.65 -11.91c26.58,-12.11 44.99,-24.41 55.23,-36.82 10.14,-12.41 15.26,-26.78 15.26,-43.32 0,-17.33 -4.33,-31.01 -12.99,-41.05 -8.76,-10.14 -19.1,-15.16 -31.01,-15.16 -7.98,0 -15.85,2.36 -23.63,7.19 -7.88,4.82 -13.68,11.51 -17.52,20.18 -3.84,8.66 -5.81,18.41 -5.81,29.34 0,19.79 6.79,46.37 20.48,79.64zm-37.31 48.73c-19.1,11.03 -33.08,20.67 -41.94,28.94 -11.91,11.22 -20.67,22.64 -26.18,34.16 -5.61,11.62 -8.37,23.82 -8.37,36.52 0,21.66 7.58,40.17 22.84,55.53 15.26,15.35 33.97,23.03 56.02,23.03 28.54,-0.39 56.7,-13.49 84.27,-39.28 -32.49,-41.15 -61.33,-87.52 -86.63,-138.91z"/>
  <path class="fil0" d="M1844.08 1100.28c0,-22.27 -21.45,-28.05 -46.2,-21.45 -27.22,8.25 -59.39,53.62 -66.82,66 -150.96,18.97 -428.14,96.52 -458.67,287.08 -15.67,97.35 61.05,157.56 149.32,127.04 69.29,-24.74 121.27,-105.59 94.04,-169.11 -13.2,-16.5 -30.52,-1.65 -17.33,6.6 12.38,13.2 12.38,111.37 -75.89,142.72 -69.3,25.57 -106.42,-26.4 -94.87,-102.29 26.4,-160.04 256.56,-249.13 389.37,-270.58 -18.15,28.87 -74.24,122.91 -131.99,250.78 -77.55,171.59 -218.61,531.26 -508.17,595.61 -132.82,28.87 -350.6,-39.6 -298.63,-220.26 18.97,-67.65 75.07,-117.96 103.94,-129.52 9.07,-4.12 18.15,-12.37 0.82,-11.55 -26.4,0.82 -94.87,51.15 -117.14,104.77 -86.62,206.24 86.62,315.13 320.91,282.96 107.24,-14.85 283.78,-100.65 380.3,-250.78 147.67,-229.34 167.47,-442.18 274.71,-625.31 7.43,0 25.57,-6.6 35.47,-6.6 32.17,-9.9 66,-22.28 66.82,-56.1zm-39.6 2.47c9.08,0 25.57,27.23 -47.85,39.6 14.03,-14.85 38.78,-43.72 47.85,-39.6zm141.89 484.25c8.25,-16.5 -4.95,-22.28 -11.55,-7.43 -28.05,59.4 -69.3,137.77 -109.72,137.77 -11.55,-0.82 -23.1,-14.03 -15.67,-49.5 4.95,-28.05 32.17,-84.97 55.27,-131.16 24.75,-51.15 33,-62.7 56.92,-81.67l-44.54 0c-15.67,0 -25.57,4.13 -32.18,17.33 -31.35,65.17 -76.72,161.69 -122.91,215.31 -53.63,61.87 -88.27,28.88 -48.68,-56.92 14.85,-31.35 51.97,-106.42 51.97,-106.42 22.28,-45.37 33.83,-55.27 52.8,-69.3l-50.32 0c-15.67,0 -25.57,4.13 -32.17,17.33 -12.38,25.57 -29.7,59.39 -46.2,90.74l-14.85 28.88c-4.95,10.72 2.47,13.2 7.42,13.2 -14.84,29.7 -35.47,60.22 -28.05,95.7 6.6,31.35 35.47,37.12 51.97,37.12 40.42,0 83.32,-56.1 111.37,-105.6 -21.45,66.82 0.83,105.6 37.95,105.6 60.22,0 104.77,-94.87 131.16,-150.96zm288.73 0c8.25,-16.5 -4.13,-21.45 -11.55,-6.6 -17.33,35.47 -71.77,140.25 -106.42,138.59 -10.72,0 -14.85,-15.67 -8.25,-49.49 10.72,-50.32 59.39,-136.94 76.72,-154.27 -11.55,2.47 -23.92,-2.48 -34.64,-3.3 -26.4,-1.65 -37.95,18.15 -56.1,52.8 -21.45,40.42 -44.55,80.85 -73.42,115.5 -38.78,46.2 -84.14,52.8 -75.9,-4.95 4.95,-31.35 27.22,-71.77 33.83,-83.32 29.69,-48.68 72.6,-97.35 109.72,-117.97 30.52,-16.5 61.05,-9.9 70.12,20.62 14.03,2.47 20.62,-11.55 9.08,-23.93 -47.02,-51.15 -141.89,-20.62 -191.39,37.95 -124.57,149.31 -61.87,293.68 33,202.94 23.92,-23.1 46.19,-56.1 59.39,-77.55 -24.75,86.62 14.03,108.07 41.25,106.42 49.49,-4.12 99.82,-103.12 124.57,-153.44zm276.36 -0.82c8.25,-16.5 -4.95,-22.28 -11.55,-7.43 -17.32,34.65 -70.12,142.72 -113.01,142.72 -10.73,0 -19.8,-7.43 -13.2,-41.25 10.72,-57.75 98.99,-212.84 98.99,-212.84 -28.05,-9.9 -113.02,42.07 -152.61,77.55 -25.57,22.27 -51.97,53.62 -68.48,74.24 29.7,-59.4 75.07,-141.89 99.82,-155.09 -11.55,2.48 -23.93,-2.47 -34.65,-3.3 -26.4,-1.65 -37.12,12.38 -58.57,51.97 -40.42,75.07 -74.25,153.44 -113.84,231.81 8.25,-5.77 15.67,-4.95 28.05,-5.77 17.33,0.82 24.75,0 31.35,-11.55 46.2,-91.57 86.62,-137.77 114.67,-163.34 63.53,-59.39 78.37,-37.12 58.58,-4.95 -23.1,37.12 -38.78,65.17 -45.37,86.62 -24.75,76.72 14.85,96.52 43.72,96.52 63.53,0 111.37,-104.77 136.12,-155.09l0 -0.82z"/>
 </g>
</svg>
