<?xml version="1.0" encoding="UTF-8"?>
<!DOCTYPE svg PUBLIC "-//W3C//DTD SVG 1.1//EN" "http://www.w3.org/Graphics/SVG/1.1/DTD/svg11.dtd">
<!-- Creator: CorelDRAW 2020 (64-Bit) -->
<svg xmlns="http://www.w3.org/2000/svg" xml:space="preserve" width="194.012mm" height="101.812mm" version="1.1" style="shape-rendering:geometricPrecision; text-rendering:geometricPrecision; image-rendering:optimizeQuality; fill-rule:evenodd; clip-rule:evenodd"
viewBox="0 0 19397.84 10179.47"
 xmlns:xlink="http://www.w3.org/1999/xlink"
 xmlns:xodm="http://www.corel.com/coreldraw/odm/2003">
 <defs>
  <style type="text/css">
   <![CDATA[
    .str0 {stroke:#FEFEFE;stroke-width:135.45;stroke-miterlimit:22.9256}
    .fil0 {fill:#D2AE6D}
   ]]>
  </style>
 </defs>
 <g id="Layer_x0020_1">
  <metadata id="CorelCorpID_0Corel-Layer"/>
  <path class="fil0" d="M9216.97 27.29c-1928.08,285.08 -2187.27,2109.37 -1933,2425.31 188.72,234.51 499.45,94.3 581.58,-55.8 121.85,-222.75 -50.05,-734.81 526.87,-1272.29 1124.69,-1047.81 3204.86,-19.55 2747.56,1689.85 -255.61,955.46 -1299.28,1166.78 -2121.85,1438.16l-6779.42 2181.11c-898.5,286.38 -1830.33,380.44 -2157.66,1444.05 -323.64,1051.64 372.42,1956.18 1194.96,2202.74 539.29,161.66 2763.14,76.78 3486.53,76.78l12521.47 0.05c622.25,0.64 1014.82,-56.16 1422.91,-376.92 672.93,-528.9 998.45,-1694.1 303.72,-2478.57 -504.52,-569.68 -1605.2,-784.49 -2503.93,-1093.4 -442.39,-152.06 -856.79,-288.89 -1318.31,-445.6 -455.55,-154.7 -915.45,-285.34 -1354.23,-441.35 -201.24,-71.56 -437.81,-166.57 -650.02,-226.89 -216.83,-61.64 -503.42,-201.84 -654.42,60.28 -288.87,501.43 489.68,621.9 941.5,775.69l4011.5 1347.53c545.77,182.15 895.78,227.21 1111.06,686.9 239.37,511.11 -19.94,1026.61 -314.98,1247.19 -433.17,323.82 -934.7,233.27 -1559.14,233.27l-14320.34 0c-638.15,0 -1070.75,31.3 -1406.7,-349.36 -299.39,-339.23 -384.5,-877.86 -79.13,-1306.62 245.21,-344.26 689.14,-402.72 1194.51,-568.81 1219.9,-400.93 2972.58,-987.01 4087.87,-1309.92 888.05,-257.12 1803.68,-581.79 2693.06,-867.12 949.62,-304.66 1905.08,-557.96 2442.84,-1155.76 1411.2,-1568.78 67.42,-4183.15 -2114.81,-3860.49z"/>
  <path class="fil0 str0" d="M9379.04 3461.57c11.12,-10.11 23.42,-26.45 36.97,-33.51 25.5,-13.27 47.8,-35.44 68.97,-54.87l115.8 -103.74c0.68,-0.53 1.75,-1.19 2.46,-1.71 37.78,-27.79 71.46,-60.04 108.27,-91l285.77 -247.38c26.95,-20.02 50.17,-48.67 79.34,-65.63 13.19,-7.68 26.99,-23.42 37.65,-33.55 35.66,-33.9 103.24,-89.34 130.13,-119.63 73.19,-82.45 82.84,-93.65 141.09,-184.79 23.54,-36.8 42.04,-77.58 59.62,-118.15 9.4,-21.68 25.94,-57.95 29.7,-81.28 1.74,-10.75 1.21,-20.7 3.75,-30.78 4.41,-17.51 6.71,-11.27 12.06,-24.31 16.02,-39.03 24.1,-151.04 16.51,-196.28 -18.29,-108.89 -38.02,-202.91 -100.81,-293.44 -20.29,-29.25 -38.93,-54.48 -64.41,-79.54 -7.68,-7.55 -14.08,-19.77 -26.68,-28.83l-23.52 -18.76c-4.16,-2.92 -4.55,-2.47 -8.43,-4.79l-18.78 -14.34c-0.79,-0.56 -1.91,-1.19 -2.72,-1.73l-28.39 -22.2c-1.16,-0.85 -9.19,-7.01 -9.59,-7.26 -13.62,-8.66 -15.31,-4.4 -26.39,-11.85l-33.43 -17.25c-18.86,-13.41 -15.81,-7.59 -37.04,-18.1l-52.57 -18.92c-74.33,-25.67 -160.21,-15.58 -234.8,-11.61 -45.32,2.41 -91.01,30.07 -109.02,35.13 -29.76,8.37 -132.05,75.92 -152.58,97.24 -8.43,8.76 -10.68,9.91 -19.15,19.03 -15.14,16.3 -38.42,33.25 -51.25,53.66 -4.21,6.71 -1.57,3.66 -6.64,10.91l-93.56 143.29c-14.91,26.49 -16.45,20.86 -34.27,41.79 -24.61,0.51 -33.07,-5.1 -46.17,-18.64 -2.33,-2.41 -3.55,-3.71 -6.05,-7.13l-40.18 -69.83c-18.81,-41.88 -67.47,-109.5 -101.72,-143.5l-31.72 -27.05c-0.79,-0.63 -1.77,-1.41 -2.52,-2.07l-121.7 -89.64 -64 -27.82c-16.65,-4.89 -31.65,-11.03 -50.15,-14.2 -105.34,-18.07 -94.74,-16.3 -207.01,-5.24 -40.55,4 -88.47,24.24 -125.78,41.32l-81.34 45.91c-40.48,25.31 -79.07,70.03 -111.04,104.08 -14.21,15.13 -15.18,14.32 -26.57,31.62l-59.55 109.99c-22.64,52.29 -20.27,69.45 -26.86,88.29 -3.78,10.81 -4.57,5.64 -8.98,20.09 -17.35,56.81 -34.27,181.51 -16.36,230.82 11.47,31.55 8.74,62.3 20.38,93.54 6.55,17.6 5.31,23.08 10.81,44.79 10.7,42.23 37.96,80.87 50.85,122.4l11.75 26.71c19.76,35.85 22.66,47.61 46.86,84.4l98.15 125.93c0.62,0.65 1.46,1.6 2.07,2.26 33.64,36.2 73.43,68.21 109.73,101.54 28.06,25.76 43.31,30.87 70.18,61.7 6.37,7.31 21.96,18.88 31.69,26.57l27.36 24.05c0.66,0.63 1.54,1.54 2.18,2.17 11.54,11.14 2.83,4.21 15.87,12.39 10.1,6.33 10.37,7.13 17.79,12.7 31.84,23.91 66.72,47.89 94.02,75.51 7.29,7.37 3.98,6.19 14.49,15.18l240.69 203.94c18.46,14.9 31.68,31.99 51.77,45.57l45.2 39.45c32.29,24.72 29.59,28.35 66.62,56.16l12.28 8.86c24.67,20.29 69.52,67.58 92.9,81.32z"/>
  <path class="fil0" d="M16642.73 4613.49c343.94,226.45 169.18,622.01 167.43,670.99 181.58,-207.41 397.09,-333.94 663.59,-209.3 -18.19,-23.57 -53.38,-44.34 -77.27,-67.54 -68.39,-66.45 -114.25,-153.04 -128.5,-238.26 -36.2,-216.51 29.18,-305.13 36.05,-373.94 -19.91,13.26 -48.24,53.76 -67.61,72.98 -132.51,131.45 -298.78,215.46 -490.93,173.74 -33.58,-7.3 -72.78,-27.49 -102.77,-28.67z"/>
  <path class="fil0" d="M15750.29 3453.31c39.18,60.56 136.15,92.67 120.84,294.44 -3.02,39.7 -22.55,89.19 -24.18,119.96 86.12,-89.71 164.52,-156.55 286.95,-156.51 53.42,0.02 76.2,18.13 120.5,23.56 -148.82,-109.72 -144.77,-240.95 -104.23,-408.2 -1.67,0.82 -3.04,0.75 -4.72,2.95l-17.02 13.6c-113.12,108.54 -208.7,172.31 -378.15,110.21z"/>
  <path class="fil0" d="M14143.62 3868.65c32.46,37.01 49.28,40.67 78.24,86.7 21.02,33.4 30.64,67.34 36.49,98.64 21.23,113.69 -14.25,162.65 -21.19,227.19 82.04,-95.01 166.28,-155.16 282.06,-159.74 50.96,-2.02 70.66,13.97 120.05,22.73 -35.16,-55.42 -187.62,-121.63 -94.93,-414.74 -26.35,19.36 -57.14,58.73 -85.36,81.33 -28.38,22.73 -63.78,44.72 -93.29,55.4 -130.09,47.06 -161.51,0.81 -222.07,2.5z"/>
  <path class="fil0" d="M3819.68 4122.59c408.4,-52.8 534.06,360.99 564.67,399.24 2.28,-275.65 83.05,-512.16 366.32,-591.58 -29.16,-6 -69.39,1.23 -102.62,-0.77 -95.17,-5.73 -186.43,-41.44 -252.83,-96.72 -168.7,-140.46 -176.98,-250.26 -216.66,-306.89 -6.44,23.04 -1.48,72.21 -3.63,99.41 -14.65,186.07 -85.83,358.22 -258.67,451.97 -30.2,16.39 -73.09,26.66 -96.58,45.33z"/>
  <path class="fil0" d="M2386.39 3825.67c69.21,20.33 163.64,-18.6 283.68,144.3 23.63,32.05 41.12,82.3 59.96,106.67 6.72,-124.17 22.53,-225.98 115.33,-305.83 40.5,-34.83 69.57,-35.98 106.69,-60.78 -184.38,13.96 -266.91,-88.13 -345.33,-241.33 -0.73,1.71 -1.82,2.55 -1.65,5.32l-4.02 21.41c-14.92,156.06 -45.73,266.75 -214.66,330.24z"/>
  <path class="fil0" d="M1439.82 5188.73c48.75,6.86 63.88,-1.34 115.85,14.64 37.72,11.6 67.16,31.03 92.01,50.94 90.26,72.31 95.33,132.56 132.19,186 0.17,-125.53 24.77,-226.08 109.52,-305.09 37.3,-34.78 62.66,-35.52 105.8,-61.11 -62.81,-19.05 -221.54,30.24 -342.54,-252.36 -7.33,31.85 -4.99,81.79 -11.63,117.33 -6.67,35.73 -19.15,75.5 -34.55,102.85 -67.87,120.54 -121.86,105.99 -166.65,146.79z"/>
 </g>
</svg>
