<?xml version="1.0" encoding="UTF-8"?>
<!DOCTYPE svg PUBLIC "-//W3C//DTD SVG 1.1//EN" "http://www.w3.org/Graphics/SVG/1.1/DTD/svg11.dtd">
<!-- Creator: CorelDRAW 2020 (64-Bit) -->
<svg xmlns="http://www.w3.org/2000/svg" xml:space="preserve" width="110.032mm" height="119.258mm" version="1.1" style="shape-rendering:geometricPrecision; text-rendering:geometricPrecision; image-rendering:optimizeQuality; fill-rule:evenodd; clip-rule:evenodd"
viewBox="0 0 10751.74 11653.2"
 xmlns:xlink="http://www.w3.org/1999/xlink"
 xmlns:xodm="http://www.corel.com/coreldraw/odm/2003">
 <defs>
  <style type="text/css">
   <![CDATA[
    .fil0 {fill:#FEFEFE}
   ]]>
  </style>
 </defs>
 <g id="Layer_x0020_1">
  <metadata id="CorelCorpID_0Corel-Layer"/>
  <path class="fil0" d="M3536.89 2061.57c-280.05,-1614.73 -1491.47,-1531.97 -1671,83.09 -35.44,318.76 -8.65,968.55 104.13,1207.39 -263.95,31.08 -1456.03,-125.54 -1683.61,526 -247.16,707.6 913.4,863.05 1350.53,881.38 -269.84,243.82 -1003.14,552.27 -1401.89,684.64 -149.85,49.75 -116.83,21.93 -168.54,177.5 -35,105.29 -63.71,187.94 -66.52,287.76 639.71,60.5 1162.22,-437.16 1644.04,-583.7 -200.05,327.26 -1063.02,958.77 -1150.29,1270.99 -110.94,396.89 219.83,622.41 377.53,783.27 276.52,282.05 349.12,396.93 864.88,237.35 -10.39,858.1 -3.42,1719.65 -3.38,2578.19 0.01,333.94 -66.14,981.3 104.21,1218.28 216.78,301.56 666.51,226.89 1079.26,227.03l3895.28 0c390.86,0.02 913.4,77.17 1155.55,-152.65 254.86,-241.87 164.24,-780.49 164.24,-1120.31l0.23 -2621.63c-16.02,-463.15 -298.34,-569.41 -768.46,-567.34 -861.55,3.79 -1723.77,-0.03 -2585.39,0.04 -801.46,0.07 -1826.37,56.21 -2599.8,-6.33l4082.22 -4077.85c144.34,-149.81 285.3,-389.55 151.99,-669.81 -63.72,-133.98 -319.88,-365.08 -425.32,-471.05 -139.25,-139.93 -333.31,-326.86 -664.91,-210.64 -187.65,65.78 -763.62,697.85 -944.98,881.11 -168.86,170.63 -793.9,837.3 -950.02,899.64 62.58,-395.6 383.88,-1101.13 626.92,-1322.99 339.93,-69.48 371.33,66.29 623.94,-206.6 315.44,-340.77 571.92,-1495.26 596.16,-1916.87l-435.1 -77.45c-52.56,342.68 -268.85,1393.84 -452.07,1636.08 -104.74,138.49 -137.77,68.01 -330.61,82.72 -260.97,19.88 -373.7,222.15 -519.23,342.77zm1100.71 9123.65l582.97 3 12.18 -3546.2 -590.25 -3.73 -4.91 3546.93zm-415.66 0.73l8.57 -3544.59c-352.32,-14.25 -1763.86,-46.14 -2023.21,18.84 -46.45,271.28 -18.01,2330.05 -18.07,2776.51 -0.12,830.2 -167.31,751.74 623.58,751.65 468.79,-0.05 940.79,5.49 1409.12,-2.4zm1412.64 -1.13c308.71,10.29 1857.88,61.81 1995.04,-30.57 46.21,-52.74 12.39,19.53 36.42,-71.13 23.34,-88.1 33.49,-3361.73 -17.04,-3414.13 -187.16,-88.01 -1688.02,-46.97 -2008.64,-26.73l-5.77 3542.56zm-4898.14 -7159.81c177.66,386.29 1405.42,338.1 1647.86,34.46 -254.17,-333.9 -1380.36,-396.41 -1647.86,-34.46zm1874.56 -2620.9c-525.31,385.61 -291.02,2460.06 177.61,2258.01 255.79,-110.28 331.37,-914.5 316.12,-1257.44 -13.35,-300.22 -189.03,-1224.23 -493.72,-1000.57zm-1177.04 5830.82c103.68,-54.69 1753.13,-1697.14 1849.24,-1831.06l-502.64 -512.41 -1760.45 1719.91c-161.25,170.56 -53.9,218.34 85.7,361.71 97.09,99.71 176.81,225.01 328.16,261.85zm1514.87 -2520.5c68.01,115.07 403.19,458.62 518.95,511.44l517.63 -505.34c-47.56,-112.9 -404.16,-473.93 -517.63,-531.36 -115.79,71.2 -456.39,411.54 -518.95,525.26zm704.61 -723.9c58.42,124.47 382.51,437.44 503.78,522.76 115.62,-59.3 1806.38,-1741.68 1847.72,-1867.16 -65.02,-120.18 -170.94,-199.51 -270.19,-302.06 -288.5,-298.13 -243.13,-199.26 -917.88,479.29 -407.1,409.4 -774.58,731.82 -1163.43,1167.17z"/>
  <path class="fil0" d="M5530.39 6454.91c5.97,-2.1 13.43,-6.42 19.85,-6.94 12.07,-0.97 24.36,-5.91 35.76,-9.98l61.95 -21.25c0.35,-0.1 0.88,-0.18 1.24,-0.26 19.22,-4.58 37.58,-11.57 56.94,-17.54l151.48 -49.1c13.74,-3.35 27.45,-10.66 41.55,-12.45 6.38,-0.82 14.32,-4.66 20.12,-6.84 19.4,-7.31 54.72,-17.74 70.12,-25.07 41.92,-19.98 47.51,-22.75 85.06,-48.55 15.18,-10.42 29.04,-23.2 42.53,-36.06 7.19,-6.87 19.56,-18.23 24.86,-26.67 2.43,-3.88 3.86,-7.83 6.5,-11.33 4.58,-6.07 4.46,-3.27 8.67,-7.46 12.62,-12.52 34.14,-54.65 38.62,-73.45 10.77,-45.25 18.54,-84.97 9.03,-130.4 -3.08,-14.68 -6.18,-27.53 -11.95,-41.43 -1.74,-4.18 -2.21,-9.98 -5.62,-15.57l-6.05 -11.13c-1.13,-1.82 -1.36,-1.71 -2.48,-3.24l-4.93 -8.64c-0.21,-0.35 -0.55,-0.78 -0.77,-1.12l-7.37 -13.27c-0.31,-0.52 -2.42,-4.22 -2.53,-4.39 -3.86,-5.6 -5.22,-4.22 -8.3,-8.92l-10.14 -12.18c-5.11,-8.3 -4.89,-5.53 -11.4,-13.1l-17.3 -15.96c-24.63,-22.15 -59.61,-32.33 -89.2,-43.03 -17.98,-6.5 -40.25,-3.26 -48.07,-4.25 -12.92,-1.64 -63.69,7.79 -75.16,12.69 -4.7,2.01 -5.77,2.09 -10.55,4.24 -8.54,3.84 -20.36,6.61 -28.69,12.42 -2.74,1.91 -1.21,1.15 -4.37,3.14l-59.81 40.25c-10.13,7.83 -9.8,5.39 -20.16,10.59 -9.62,-3.84 -11.99,-7.41 -14.85,-14.8 -0.51,-1.32 -0.77,-2.02 -1.18,-3.76l-4.13 -33.69c-0.42,-19.34 -8.21,-53.56 -15.93,-72.37l-7.87 -15.7c-0.21,-0.37 -0.46,-0.83 -0.64,-1.21l-32.51 -54.75 -20.27 -21.29c-5.66,-4.63 -10.47,-9.48 -17.13,-13.74 -37.91,-24.29 -34.09,-21.87 -79.47,-36 -16.39,-5.1 -38.3,-5.11 -55.58,-4.6l-39.1 4.47c-19.87,3.18 -42.16,14.2 -60.16,22.17 -7.99,3.54 -8.24,3.06 -15.5,7.91l-41.16 32.9c-17.35,16.58 -19.25,23.63 -24.9,29.86 -3.24,3.57 -2.7,1.44 -6.78,6.31 -16.05,19.2 -43.08,64.81 -44.22,86.88 -0.73,14.13 -6.84,25.61 -7.45,39.64 -0.35,7.91 -1.73,9.82 -3.16,19.15 -2.78,18.15 1.47,37.61 -0.35,55.83l0.18 12.29c1.79,17.16 0.98,22.19 4.34,40.44l17.42 64.96c0.14,0.35 0.3,0.86 0.43,1.22 7.11,19.56 17.31,38.51 25.92,57.4 6.65,14.6 11.74,19.08 17.1,35.46 1.28,3.88 5.42,10.92 7.94,15.51l6.66 13.82c0.16,0.35 0.34,0.85 0.5,1.2 2.64,6.21 0.4,2.09 4.12,7.41 2.87,4.11 2.85,4.47 4.82,7.85 8.43,14.5 18.03,29.53 24.1,44.72 1.61,4.06 0.52,3.05 3.13,8.27l59.93 118.63c4.72,8.8 7.05,17.61 12.61,26.17l11.06 22.73c8.48,14.89 6.84,15.86 16.64,32.72l3.31 5.45c6.23,11.92 15.88,37.63 22.7,46.8z"/>
  <path class="fil0" d="M8687.19 6247.29c-9.92,-3.49 -22.29,-10.66 -32.95,-11.52 -20.03,-1.6 -40.44,-9.81 -59.36,-16.56l-102.84 -35.27c-0.58,-0.16 -1.46,-0.29 -2.04,-0.43 -31.9,-7.6 -62.38,-19.21 -94.53,-29.13l-251.44 -81.5c-22.81,-5.55 -45.56,-17.69 -68.97,-20.67 -10.59,-1.35 -23.76,-7.73 -33.39,-11.35 -32.21,-12.13 -90.84,-29.42 -116.4,-41.61 -69.59,-33.17 -78.87,-37.77 -141.2,-80.59 -25.18,-17.3 -48.21,-38.52 -70.59,-59.86 -11.95,-11.4 -32.48,-30.26 -41.26,-44.26 -4.05,-6.45 -6.41,-13 -10.8,-18.8 -7.6,-10.07 -7.39,-5.43 -14.38,-12.37 -20.95,-20.78 -56.66,-90.73 -64.09,-121.93 -17.88,-75.11 -30.77,-141.04 -14.99,-216.46 5.1,-24.36 10.24,-45.69 19.83,-68.77 2.89,-6.95 3.68,-16.56 9.33,-25.84l10.04 -18.48c1.89,-3.02 2.26,-2.83 4.13,-5.38l8.18 -14.34c0.36,-0.58 0.91,-1.29 1.28,-1.86l12.24 -22.02c0.51,-0.87 4.01,-7.02 4.19,-7.29 6.41,-9.28 8.67,-7 13.77,-14.81l16.84 -20.22c8.5,-13.78 8.12,-9.19 18.94,-21.75l28.71 -26.5c40.88,-36.77 98.95,-53.66 148.07,-71.42 29.85,-10.8 66.82,-5.41 79.79,-7.06 21.45,-2.72 105.72,12.94 124.76,21.08 7.81,3.34 9.58,3.48 17.51,7.05 14.19,6.37 33.81,10.95 47.63,20.6 4.53,3.18 2,1.92 7.25,5.22l99.28 66.81c16.83,13 16.28,8.95 33.47,17.59 15.99,-6.38 19.91,-12.3 24.65,-24.58 0.85,-2.19 1.28,-3.36 1.96,-6.23l6.86 -55.92c0.7,-32.1 13.63,-88.91 26.43,-120.13l13.07 -26.06c0.33,-0.62 0.75,-1.39 1.06,-2.01l53.97 -90.88 33.65 -35.35c9.39,-7.68 17.38,-15.72 28.43,-22.81 62.93,-40.33 56.59,-36.29 131.9,-59.75 27.2,-8.47 63.59,-8.49 92.27,-7.64l64.89 7.42c32.97,5.28 69.99,23.58 99.86,36.8 13.27,5.87 13.67,5.09 25.72,13.13l68.31 54.62c28.83,27.53 31.97,39.21 41.34,49.56 5.38,5.93 4.49,2.38 11.26,10.49 26.65,31.86 71.51,107.57 73.4,144.21 1.21,23.45 11.33,42.51 12.35,65.8 0.58,13.12 2.86,16.31 5.24,31.8 4.61,30.12 -2.43,62.42 0.59,92.68l-0.29 20.4c-2.96,28.47 -1.63,36.84 -7.2,67.13l-28.92 107.84c-0.22,0.59 -0.5,1.43 -0.71,2.02 -11.81,32.48 -28.72,63.92 -43.02,95.28 -11.05,24.22 -19.48,31.68 -28.4,58.85 -2.11,6.44 -9,18.14 -13.17,25.74l-11.08 22.94c-0.24,0.58 -0.57,1.41 -0.81,1.98 -4.4,10.32 -0.67,3.49 -6.85,12.31 -4.77,6.82 -4.73,7.41 -7.99,13.02 -14,24.07 -29.93,49.02 -39.99,74.24 -2.69,6.73 -0.88,5.06 -5.2,13.72l-99.48 196.9c-7.83,14.62 -11.7,29.24 -20.93,43.45l-18.37 37.72c-14.07,24.71 -11.34,26.32 -27.61,54.32l-5.5 9.05c-10.35,19.79 -26.36,62.46 -37.68,77.68z"/>
  <path class="fil0" d="M7231.46 4055.4c5.97,-2.1 13.43,-6.42 19.85,-6.94 12.07,-0.97 24.36,-5.91 35.76,-9.98l61.95 -21.25c0.35,-0.1 0.88,-0.18 1.24,-0.26 19.22,-4.58 37.58,-11.57 56.94,-17.54l151.48 -49.1c13.74,-3.35 27.45,-10.66 41.55,-12.45 6.38,-0.82 14.32,-4.66 20.12,-6.84 19.4,-7.31 54.72,-17.74 70.12,-25.07 41.92,-19.98 47.51,-22.75 85.06,-48.55 15.18,-10.42 29.04,-23.2 42.53,-36.06 7.19,-6.87 19.56,-18.23 24.86,-26.67 2.43,-3.88 3.86,-7.83 6.5,-11.33 4.58,-6.07 4.46,-3.27 8.67,-7.46 12.62,-12.52 34.14,-54.65 38.62,-73.45 10.77,-45.25 18.54,-84.97 9.03,-130.4 -3.08,-14.68 -6.18,-27.53 -11.95,-41.43 -1.74,-4.18 -2.21,-9.98 -5.62,-15.57l-6.05 -11.13c-1.13,-1.82 -1.36,-1.71 -2.48,-3.24l-4.93 -8.64c-0.21,-0.35 -0.55,-0.78 -0.77,-1.12l-7.37 -13.27c-0.31,-0.52 -2.42,-4.22 -2.53,-4.39 -3.86,-5.6 -5.22,-4.22 -8.3,-8.92l-10.14 -12.18c-5.11,-8.3 -4.89,-5.53 -11.4,-13.1l-17.3 -15.96c-24.63,-22.15 -59.61,-32.33 -89.2,-43.03 -17.98,-6.5 -40.25,-3.26 -48.07,-4.25 -12.92,-1.64 -63.69,7.79 -75.16,12.69 -4.7,2.01 -5.77,2.09 -10.55,4.24 -8.54,3.84 -20.36,6.61 -28.69,12.42 -2.74,1.91 -1.21,1.15 -4.37,3.14l-59.81 40.25c-10.13,7.83 -9.8,5.39 -20.16,10.59 -9.62,-3.84 -11.99,-7.41 -14.85,-14.8 -0.51,-1.32 -0.77,-2.02 -1.18,-3.76l-4.13 -33.69c-0.42,-19.34 -8.21,-53.56 -15.93,-72.37l-7.87 -15.7c-0.21,-0.37 -0.46,-0.83 -0.64,-1.21l-32.51 -54.75 -20.27 -21.29c-5.66,-4.63 -10.47,-9.48 -17.13,-13.74 -37.91,-24.29 -34.09,-21.87 -79.47,-36 -16.39,-5.1 -38.3,-5.11 -55.58,-4.6l-39.1 4.47c-19.87,3.18 -42.16,14.2 -60.16,22.17 -7.99,3.54 -8.24,3.06 -15.5,7.91l-41.16 32.9c-17.35,16.58 -19.25,23.63 -24.9,29.86 -3.24,3.57 -2.7,1.44 -6.78,6.31 -16.05,19.2 -43.08,64.81 -44.22,86.88 -0.73,14.13 -6.84,25.61 -7.45,39.64 -0.35,7.91 -1.73,9.82 -3.16,19.15 -2.78,18.15 1.47,37.61 -0.35,55.83l0.18 12.29c1.79,17.16 0.98,22.19 4.34,40.44l17.42 64.96c0.14,0.35 0.3,0.86 0.43,1.22 7.11,19.56 17.31,38.51 25.92,57.4 6.65,14.6 11.74,19.08 17.1,35.46 1.28,3.88 5.42,10.92 7.94,15.51l6.66 13.82c0.16,0.35 0.34,0.85 0.5,1.2 2.64,6.21 0.4,2.09 4.12,7.41 2.87,4.11 2.85,4.47 4.82,7.85 8.43,14.5 18.03,29.53 24.1,44.72 1.61,4.06 0.52,3.05 3.13,8.27l59.93 118.63c4.72,8.8 7.05,17.61 12.61,26.17l11.06 22.73c8.48,14.89 6.84,15.86 16.64,32.72l3.31 5.45c6.23,11.92 15.88,37.63 22.7,46.8z"/>
  <path class="fil0" d="M9939.58 3763.47c336.14,221.31 165.34,607.9 163.63,655.76 177.46,-202.71 388.08,-326.37 648.53,-204.56 -17.77,-23.03 -52.17,-43.34 -75.51,-66.01 -66.84,-64.94 -111.66,-149.57 -125.58,-232.85 -35.38,-211.6 28.51,-298.21 35.24,-365.45 -19.45,12.96 -47.15,52.54 -66.07,71.32 -129.5,128.47 -292,210.57 -479.79,169.8 -32.82,-7.13 -71.13,-26.86 -100.44,-28.01z"/>
  <path class="fil0" d="M9848.14 2000.91c38.29,59.19 133.06,90.57 118.1,287.76 -2.95,38.8 -22.03,87.17 -23.63,117.24 84.16,-87.68 160.79,-153 280.44,-152.96 52.21,0.02 74.47,17.72 117.77,23.02 -145.45,-107.23 -141.48,-235.48 -101.87,-398.94 -1.63,0.8 -2.97,0.73 -4.61,2.88l-16.63 13.29c-110.55,106.08 -203.97,168.4 -369.57,107.71z"/>
  <path class="fil0" d="M7943.5 1868.57c31.73,36.17 48.16,39.75 76.46,84.73 20.54,32.65 29.95,65.81 35.67,96.41 20.74,111.11 -13.92,158.96 -20.71,222.04 80.17,-92.86 162.51,-151.64 275.66,-156.12 49.81,-1.97 69.05,13.65 117.33,22.21 -34.37,-54.16 -183.36,-118.87 -92.78,-405.33 -25.75,18.92 -55.84,57.4 -83.42,79.48 -27.73,22.21 -62.33,43.71 -91.18,54.14 -127.14,45.99 -157.85,0.79 -217.03,2.44z"/>
 </g>
</svg>
